<?xml version="1.0"?>
<svg xmlns="http://www.w3.org/2000/svg" height="512px" viewBox="-20 0 511 511.99927" width="512px" class=""><g><path d="m375.8125 136.726562c0-4.40625 1.710938-8.539062 4.816406-11.644531 3.113282-3.109375 7.25-4.820312 11.652344-4.820312 4.054688 0 7.871094 1.464843 10.882812 4.121093 8.171876-12.605468 12.9375-27.613281 12.9375-43.71875 0-44.476562-36.222656-80.664062-80.746093-80.664062-44.519531 0-80.742188 36.1875-80.742188 80.664062 0 19.765626 7.195313 38.707032 20.28125 53.46875l-5.589843 28.132813c-.160157.820313.15625 1.65625.816406 2.164063.390625.296874.859375.449218 1.332031.449218.332031 0 .660156-.070312.96875-.222656l25.472656-12.515625c11.488281 6.015625 24.414063 9.191406 37.464844 9.191406 16.535156 0 31.921875-5 44.738281-13.554687-2.761718-3.03125-4.285156-6.917969-4.285156-11.050782zm0 0" fill="#a2f9f9" data-original="#A2F9F9"/><path d="m335.398438 135.804688c-1.382813 0-2.769532-.527344-3.824219-1.582032l-45.335938-45.289062c-10.441406-10.433594-10.441406-27.40625 0-37.839844 5.058594-5.050781 11.78125-7.835938 18.9375-7.835938 7.152344 0 13.878907 2.785157 18.9375 7.835938l11.285157 11.273438 11.285156-11.273438c5.058594-5.050781 11.78125-7.835938 18.9375-7.835938 7.152344 0 13.878906 2.785157 18.9375 7.835938 10.441406 10.433594 10.441406 27.40625 0 37.839844l-45.335938 45.289062c-1.054687 1.054688-2.441406 1.582032-3.824218 1.582032zm0 0" fill="#fb8276" data-original="#FB8276"/><g fill="#08375e"><path d="m315.804688 87.214844c-4.160157 0-7.527344-3.371094-7.527344-7.527344v-4.605469c0-4.15625 3.367187-7.527343 7.527344-7.527343 4.15625 0 7.527343 3.371093 7.527343 7.527343v4.605469c0 4.15625-3.371093 7.527344-7.527343 7.527344zm0 0" data-original="#08375E"/><path d="m354.992188 87.214844c-4.15625 0-7.527344-3.371094-7.527344-7.527344v-4.605469c0-4.15625 3.371094-7.527343 7.527344-7.527343s7.527343 3.371093 7.527343 7.527343v4.605469c0 4.15625-3.371093 7.527344-7.527343 7.527344zm0 0" data-original="#08375E"/><path d="m335.398438 112.933594c-9.234376 0-16.75-7.511719-16.75-16.742188 0-4.15625 3.371093-7.523437 7.527343-7.523437 4.160157 0 7.527344 3.367187 7.527344 7.523437 0 .929688.761719 1.6875 1.695313 1.6875.933593 0 1.695312-.757812 1.695312-1.6875 0-4.15625 3.367188-7.523437 7.527344-7.523437 4.15625 0 7.527344 3.367187 7.527344 7.523437-.003907 9.230469-7.515626 16.742188-16.75 16.742188zm0 0" data-original="#08375E"/></g><path d="m38.605469 338.035156-35.515625 20.484375c-2.472656 1.425781-3.328125 4.617188-1.898438 7.085938l31.222656 54.03125c1.429688 2.46875 4.621094 3.324219 7.09375 1.898437l35.511719-20.484375zm0 0" fill="#5dc647" data-original="#5DC647" class="active-path" style="fill:#E3C783" data-old_color="#5dc647"/><path d="m306.910156 275.734375 26.144532-15.082031c4.949218-2.851563 6.660156-9.230469 3.804687-14.175782l-33.34375-57.691406c-2.855469-4.941406-9.238281-6.652344-14.1875-3.796875l-26.148437 15.082031zm0 0" fill="#c5ccd3" data-original="#C5CCD3" class=""/><path d="m137.894531 397.613281-45.019531 25.964844c-.628906.363281-1.351562.554687-2.078125.554687-.589844 0-1.160156-.125-1.683594-.351562l49.484375 85.628906c1.429688 2.46875 4.621094 3.324219 7.09375 1.898438l15.546875-8.96875c2.476563-1.425782 3.882813-4.847656 3.132813-7.601563zm0 0" fill="#9ea7af" data-original="#9EA7AF" class=""/><path d="m172.496094 355.378906h143.839844l-117.484376-203.289062-71.917968 124.449218zm0 0" fill="#5dc647" data-original="#5DC647" class="active-path" style="fill:#E3C783" data-old_color="#5dc647"/><path d="m180.925781 367.960938c1.429688 2.46875.574219 5.660156-1.898437 7.085937l-85.648438 49.398437c-2.476562 1.429688-5.667968.574219-7.09375-1.898437l-60.683594-105.003906c-1.425781-2.46875-.574218-5.660157 1.902344-7.085938l85.648438-49.402343c2.472656-1.425782 5.664062-.574219 7.089844 1.898437zm0 0" fill="#424f59" data-original="#424F59"/><path d="m135.367188 360.824219c1.429687 2.472656.574218 5.660156-1.902344 7.089843l-23.492188 13.550782c-2.472656 1.425781-5.664062.570312-7.09375-1.902344l-8.738281-15.121094c-1.429687-2.472656-.574219-5.660156 1.898437-7.089844l23.496094-13.546874c2.476563-1.429688 5.667969-.574219 7.09375 1.898437zm0 0" fill="#f7931e" data-original="#F7931E"/><path d="m111.734375 319.925781c1.425781 2.472657.570313 5.664063-1.902344 7.089844l-23.496093 13.550781c-2.472657 1.425782-5.664063.570313-7.09375-1.902344l-8.738282-15.121093c-1.425781-2.46875-.574218-5.660157 1.902344-7.085938l23.492188-13.550781c2.476562-1.425781 5.667968-.574219 7.09375 1.898438zm0 0" fill="#5dc647" data-original="#5DC647" class="active-path" style="fill:#E3C783" data-old_color="#5dc647"/><path d="m355.574219 357.941406c1.429687 2.472656.574219 5.664063-1.898438 7.089844l-20.195312 11.648438c-2.472657 1.425781-5.664063.574218-7.09375-1.898438l-139.324219-241.089844c-1.429688-2.46875-.574219-5.660156 1.898438-7.085937l20.195312-11.648438c2.476562-1.425781 5.667969-.570312 7.09375 1.898438zm0 0" fill="#fff" data-original="#FFF"/><path d="m355.574219 357.941406c1.429687 2.472656.574219 5.664063-1.898438 7.089844l-20.195312 11.648438c-2.472657 1.425781-5.664063.574218-7.09375-1.898438l-139.324219-241.089844c-1.429688-2.46875-.574219-5.660156 1.898438-7.085937l20.195312-11.648438c2.476562-1.425781 5.667969-.570312 7.09375 1.898438zm0 0" fill="#9ea7af" data-original="#9EA7AF" class=""/><path d="m412.011719 179.675781c-.902344 0-1.804688-.34375-2.496094-1.03125l-29.597656-29.566406c-6.816407-6.8125-6.816407-17.894531 0-24.707031 3.304687-3.296875 7.695312-5.113282 12.363281-5.113282 4.671875 0 9.0625 1.816407 12.363281 5.113282l7.367188 7.363281 7.371093-7.363281c3.300782-3.296875 7.691407-5.113282 12.359376-5.113282 4.671874 0 9.0625 1.816407 12.367187 5.113282 6.816406 6.8125 6.816406 17.894531 0 24.707031l-29.597656 29.566406c-.691407.6875-1.597657 1.03125-2.5 1.03125zm0 0" fill="#ef5050" data-original="#EF5050"/><path d="m471.15625 272.589844c0-30.90625-25.082031-55.960938-56.015625-55.960938-30.9375 0-56.015625 25.054688-56.015625 55.960938s25.078125 55.960937 56.015625 55.960937c30.933594 0 56.015625-25.054687 56.015625-55.960937zm0 0" fill="#ffc502" data-original="#FFC502" class=""/><path d="m392.753906 268.054688c-4.160156 0-7.527344-3.367188-7.527344-7.523438v-5.265625c0-4.15625 3.367188-7.527344 7.527344-7.527344 4.15625 0 7.527344 3.371094 7.527344 7.527344v5.265625c0 4.15625-3.371094 7.523438-7.527344 7.523438zm0 0" fill="#775436" data-original="#775436" class="" style="fill:#E7832D" data-old_color="#775436"/><path d="m437.527344 268.054688c-4.160156 0-7.527344-3.367188-7.527344-7.523438v-5.265625c0-4.15625 3.367188-7.527344 7.527344-7.527344 4.15625 0 7.523437 3.371094 7.523437 7.527344v5.265625c0 4.15625-3.367187 7.523438-7.523437 7.523438zm0 0" fill="#775436" data-original="#775436" class="" style="fill:#E7832D" data-old_color="#775436"/><path d="m415.140625 308.925781c-13.6875 0-24.820313-11.125-24.820313-24.804687 0-4.15625 3.367188-7.527344 7.527344-7.527344 4.15625 0 7.523438 3.371094 7.523438 7.527344 0 5.378906 4.382812 9.753906 9.769531 9.753906s9.765625-4.375 9.765625-9.753906c0-4.15625 3.371094-7.527344 7.527344-7.527344 4.160156 0 7.527344 3.371094 7.527344 7.527344 0 13.679687-11.132813 24.804687-24.820313 24.804687zm0 0" fill="#775436" data-original="#775436" class="" style="fill:#E7832D" data-old_color="#775436"/></g> </svg>
