<?xml version="1.0"?>
<svg xmlns="http://www.w3.org/2000/svg" height="512px" viewBox="0 -23 512.001 512" width="512px" class=""><g><path d="m53.128906 8.160156c0-5.441406 5.78125-8.160156 11.558594-8.160156h58.992188c5.609374 0 7.988281 5.949219 7.988281 11.390625 0 6.289063-2.890625 11.730469-7.988281 11.730469h-44.03125v28.726562h25.671874c5.101563 0 7.988282 4.933594 7.988282 10.371094 0 4.589844-2.378906 10.03125-7.988282 10.03125h-25.671874v43.859375c0 5.4375-6.628907 8.160156-13.257813 8.160156-6.632813 0-13.261719-2.722656-13.261719-8.160156zm0 0" fill="#8fd553" data-original="#8FD553" class="" style="fill:#EFB64A" data-old_color="#8fd553"/><path d="m157.679688 7.988281c0-4.25 3.230468-7.988281 8.160156-7.988281h35.191406c23.289062 0 41.820312 8.671875 41.820312 36.378906 0 19.042969-8.671874 29.921875-20.570312 34.511719l20.738281 37.570313c.683594 1.019531.851563 2.210937.851563 3.058593 0 6.632813-8.839844 13.773438-16.660156 13.773438-3.398438 0-6.628907-1.359375-8.5-4.929688l-23.289063-45.222656h-11.21875v40.972656c0 5.4375-6.632813 8.160157-13.261719 8.160157s-13.261718-2.722657-13.261718-8.160157zm26.523437 15.132813v31.621094h16.828125c9.519531 0 15.300781-3.910157 15.300781-15.8125 0-11.898438-5.78125-15.8125-15.300781-15.8125h-16.828125zm0 0" fill="#8fd553" data-original="#8FD553" class="" style="fill:#EFB64A" data-old_color="#8fd553"/><path d="m300.484375 51.847656h25.5c5.097656 0 7.988281 4.933594 7.988281 10.371094 0 4.589844-2.378906 10.03125-7.988281 10.03125h-25.5v28.898438h45.558594c5.101562 0 7.992187 5.441406 7.992187 11.730468 0 5.441406-2.382812 11.390625-7.992187 11.390625h-60.519531c-5.78125 0-11.5625-2.722656-11.5625-8.160156v-107.949219c0-5.441406 5.78125-8.160156 11.5625-8.160156h60.519531c5.609375 0 7.992187 5.949219 7.992187 11.390625 0 6.289063-2.890625 11.730469-7.992187 11.730469h-45.558594zm0 0" fill="#61c94d" data-original="#61C94D" class="active-path" data-old_color="#61c94d" style="fill:#EDB50B"/><path d="m409.113281 51.847656h25.5c5.097657 0 7.988281 4.933594 7.988281 10.371094 0 4.589844-2.378906 10.03125-7.988281 10.03125h-25.5v28.898438h45.558594c5.101563 0 7.992187 5.441406 7.992187 11.730468 0 5.441406-2.382812 11.390625-7.992187 11.390625h-60.519531c-5.78125 0-11.5625-2.722656-11.5625-8.160156v-107.949219c0-5.441406 5.78125-8.160156 11.5625-8.160156h60.519531c5.609375 0 7.992187 5.949219 7.992187 11.390625 0 6.289063-2.890624 11.730469-7.992187 11.730469h-45.558594zm0 0" fill="#61c94d" data-original="#61C94D" class="active-path" data-old_color="#61c94d" style="fill:#EDB50B"/><path d="m497 422.324219h-409.007812c-8.285157 0-15-6.714844-15-15v-209.425781c0-8.28125 6.714843-15 15-15h288.867187c12.078125 0 23.078125 7.136718 28.023437 18.179687l32.664063 72.960937 38.71875 15.847657c21.707031 8.882812 35.734375 29.816406 35.734375 53.328125v64.109375c0 8.285156-6.714844 15-15 15zm0 0" fill="#c9dff7" data-original="#C9DFF7" class="" data-old_color="#c9dff7" style="fill:#F5D1A3"/><path d="m476.265625 289.886719-38.71875-15.847657-32.664063-72.960937c-4.945312-11.042969-15.945312-18.179687-28.023437-18.179687h-120.835937v239.425781h240.976562c8.285156 0 15-6.714844 15-15v-64.109375c0-23.511719-14.027344-44.445313-35.734375-53.328125zm0 0" fill="#aecef2" data-original="#AECEF2" class="" data-old_color="#aecef2" style="fill:#F5DE61"/><path d="m412.621094 288.203125s-35.492188-78.878906-35.761719-78.878906h-59.496094v66c0 8.285156 6.714844 15 15 15h81.4375c-.445312-.671875-.847656-1.375-1.179687-2.121094zm0 0" fill="#5877a6" data-original="#5877A6" class=""/><path d="m185.070312 420.4375c0-17.425781-14.070312-31.554688-31.425781-31.554688-17.359375 0-31.429687 14.128907-31.429687 31.554688 0 17.429688 14.070312 31.558594 31.429687 31.558594 17.355469 0 31.425781-14.128906 31.425781-31.558594zm0 0" fill="#aecef2" data-original="#AECEF2" class="" data-old_color="#aecef2" style="fill:#F5DE61"/><path d="m153.644531 466.996094c-25.601562 0-46.429687-20.886719-46.429687-46.554688 0-25.671875 20.828125-46.558594 46.429687-46.558594 25.601563 0 46.429688 20.886719 46.429688 46.558594 0 25.667969-20.828125 46.554688-46.429688 46.554688zm0-63.113282c-9.058593 0-16.429687 7.429688-16.429687 16.558594 0 9.125 7.371094 16.554688 16.429687 16.554688 9.058594 0 16.425781-7.429688 16.425781-16.554688 0-9.128906-7.367187-16.558594-16.425781-16.558594zm0 0" fill="#696453" data-original="#696453" class=""/><path d="m457.738281 420.4375c0-17.425781-14.070312-31.554688-31.429687-31.554688-17.355469 0-31.425782 14.128907-31.425782 31.554688 0 17.429688 14.070313 31.558594 31.425782 31.558594 17.359375 0 31.429687-14.128906 31.429687-31.558594zm0 0" fill="#91b6e3" data-original="#91B6E3" class="" data-old_color="#91b6e3" style="fill:#EDE565"/><path d="m426.308594 466.996094c-25.597656 0-46.425782-20.886719-46.425782-46.554688 0-25.671875 20.828126-46.558594 46.425782-46.558594 25.601562 0 46.429687 20.886719 46.429687 46.558594 0 25.667969-20.828125 46.554688-46.429687 46.554688zm0-63.113282c-9.058594 0-16.425782 7.429688-16.425782 16.558594 0 9.125 7.371094 16.554688 16.425782 16.554688 9.0625 0 16.429687-7.429688 16.429687-16.554688 0-9.128906-7.371093-16.558594-16.429687-16.558594zm0 0" fill="#4c4a40" data-original="#4C4A40" class=""/><path d="m87.992188 256.773438h-72.992188c-8.285156 0-15-6.714844-15-15 0-8.28125 6.714844-15 15-15h72.992188c8.285156 0 15 6.71875 15 15 0 8.285156-6.714844 15-15 15zm0 0" fill="#38b57c" data-original="#38B57C" class="" style="fill:#E3D723" data-old_color="#38b57c"/><path d="m87.992188 376.777344h-41c-8.285157 0-15-6.714844-15-15s6.714843-15 15-15h41c8.285156 0 15 6.714844 15 15s-6.714844 15-15 15zm0 0" fill="#8fd553" data-original="#8FD553" class="" style="fill:#EFB64A" data-old_color="#8fd553"/><path d="m124.992188 316.777344h-78c-8.285157 0-15-6.71875-15-15 0-8.285156 6.714843-15 15-15h78c8.285156 0 15 6.714844 15 15 0 8.28125-6.714844 15-15 15zm0 0" fill="#61c94d" data-original="#61C94D" class="active-path" data-old_color="#61c94d" style="fill:#EDB50B"/></g> </svg>
